<svg width="1440" height="1193" viewBox="0 0 1440 1193" fill="none" xmlns="http://www.w3.org/2000/svg">
<path d="M2309.26 896.207C2316.52 729.514 2206.52 625.018 2075.07 606.815C2034.86 601.252 2002.6 575.512 1988.06 539.9C1981.84 524.669 1974.76 509.648 1966.79 494.881C1898.41 368.358 1778.41 285.878 1641.68 256.237C1602.17 247.669 1571.44 220.59 1559.32 183.928C1539.55 124.165 1496.55 69.0445 1426.18 28.8425C1392.29 9.48101 1352.57 -0.11123 1311.75 1.03625C1160.07 5.26004 1098.72 182.703 1004.23 182.703C909.74 182.703 785.69 197.072 694.855 112.871C693.55 111.661 692.679 110.763 691.536 109.749C608.543 35.9717 523.033 64.1324 473.866 92.4017C447.311 107.667 415.081 107.475 390.614 91.3924C199.402 -34.2589 -66.7431 3.06811 -230.821 188.153C-236.596 194.677 -242.172 201.292 -247.56 208.007C-280.141 248.684 -328.333 272.731 -379.003 276.076C-490.636 283.43 -600.957 361.896 -636.814 505.248C-646.259 543.018 -644.905 582.261 -632.908 618.195C-584.16 764.234 -455.573 821.659 -337.091 798.231C-319.672 794.79 -302.298 795.931 -286.261 800.982C-275.998 804.205 -267.87 812.041 -264.224 822.168C-207.624 979.225 -66.5142 1050.83 71.802 1036.45C117.962 1031.65 161.648 1051.57 188.862 1087.39C200.5 1102.7 223.5 1113.27 259.5 1115C481.031 1125.63 547.462 1049.83 682.377 1049.83C728.693 1048.58 875.879 1084.79 900.76 1122.44C962.105 1170.65 1014.35 1106.23 1104.66 1131.87C1194.97 1157.51 1222.46 1074.2 1267.19 1061.74C1409.73 1022.05 1394.98 1086.14 1446.52 1110.53C1606.56 1119.96 1597.88 841.093 1724.98 1192.91C1733.51 1188.3 1741.87 1183.51 1750.07 1178.56C1799.71 1148.56 1858.9 1141.11 1912.5 1155.73C2030.56 1187.93 2175.29 1146.95 2268.78 1013.13C2293.41 977.865 2307.48 937.242 2309.26 896.229" fill="white"/>
</svg>
