<svg width="1440" height="1419" viewBox="0 0 1440 1419" fill="none" xmlns="http://www.w3.org/2000/svg">
<path d="M2842.01 1065.51C2850.65 867.146 2719.74 742.793 2563.31 721.131C2515.46 714.511 2477.07 683.88 2459.77 641.501C2452.37 623.376 2443.94 605.501 2434.45 587.928C2353.08 437.363 2210.28 339.21 2047.57 303.936C2000.56 293.74 1963.99 261.515 1949.56 217.887C1926.03 146.768 1874.86 81.173 1791.12 33.3318C1750.79 10.2911 1703.52 -1.12384 1654.94 0.241697C1474.44 5.26813 1401.44 216.429 1288.99 216.429C1176.54 216.429 1050.74 131.124 920.826 133.327C919.517 132.077 918.237 130.819 916.876 129.612C818.113 41.8156 716.355 75.3274 657.844 108.969C626.244 127.135 587.89 126.906 558.773 107.767C331.227 -41.7603 14.5083 2.65962 -180.748 222.915C-187.621 230.678 -194.255 238.55 -200.668 246.541C-239.44 294.948 -296.789 323.565 -357.088 327.545C-489.933 336.297 -621.217 429.673 -663.889 600.264C-675.127 645.212 -673.517 691.911 -659.24 734.674C-601.229 908.464 -448.208 976.8 -307.211 948.921C-286.482 944.825 -265.808 946.184 -246.723 952.194C-234.51 956.03 -224.837 965.355 -220.499 977.406C-153.143 1164.31 14.7807 1249.52 179.38 1232.4C234.311 1226.7 286.299 1250.4 318.683 1293.02C332.534 1311.25 347.449 1328.92 363.437 1345.96C500.471 1491.92 715.207 1253.49 905.978 1248.33C961.094 1246.84 1136.25 1289.94 1165.86 1334.73C1214.13 1407.76 1301.04 1315.44 1408.51 1345.96C1460.27 1360.66 1548.69 1277.33 1601.92 1262.51C1771.54 1215.27 1721.71 1464.53 1761.22 1334.73C1898.88 1354.92 1995.45 999.928 2146.7 1418.6C2156.85 1413.11 2166.8 1407.41 2176.56 1401.52C2235.63 1365.82 2306.07 1356.96 2369.84 1374.36C2510.35 1412.67 2682.58 1363.9 2793.83 1204.65C2823.14 1162.69 2839.88 1114.35 2842 1065.54" fill="white"/>
</svg>
